HIERARCHY
ROOT Hips
{
	OFFSET -0.001795 -0.223333 0.028219
	CHANNELS 6 Xposition Yposition Zposition Zrotation Yrotation Xrotation 
	JOINT LeftUpLeg
	{
		OFFSET 0.069520 -0.091406 -0.006815
		CHANNELS 3 Zrotation Yrotation Xrotation
		JOINT LeftLeg
		{
			OFFSET 0.034277 -0.375199 -0.004496
			CHANNELS 3 Zrotation Yrotation Xrotation
			JOINT LeftFoot
			{
				OFFSET -0.013596 -0.397961 -0.043693
				CHANNELS 3 Zrotation Yrotation Xrotation
				JOINT LeftToe
				{
					OFFSET 0.026358 -0.055791 0.119288
					CHANNELS 3 Zrotation Yrotation Xrotation
					End Site
					{
						OFFSET 0.000000 0.000000 0.000000
					}
				}
			}
		}
	}
	JOINT RightUpLeg
	{
		OFFSET -0.067670 -0.090522 -0.004320
		CHANNELS 3 Zrotation Yrotation Xrotation
		JOINT RightLeg
		{
			OFFSET -0.038290 -0.382569 -0.008850
			CHANNELS 3 Zrotation Yrotation Xrotation
			JOINT RightFoot
			{
				OFFSET 0.015774 -0.398415 -0.042312
				CHANNELS 3 Zrotation Yrotation Xrotation
				JOINT RightToe
				{
					OFFSET -0.025372 -0.048144 0.123348
					CHANNELS 3 Zrotation Yrotation Xrotation
					End Site
					{
						OFFSET 0.000000 0.000000 0.000000
					}
				}
			}
		}
	}
	JOINT Spine
	{
		OFFSET -0.002533 0.108963 -0.026696
		CHANNELS 3 Zrotation Yrotation Xrotation
		JOINT Spine1
		{
			OFFSET 0.005487 0.135180 0.001092
			CHANNELS 3 Zrotation Yrotation Xrotation
			JOINT Spine2
			{
				OFFSET 0.001457 0.052922 0.025425
				CHANNELS 3 Zrotation Yrotation Xrotation
				JOINT Neck
				{
					OFFSET -0.002778 0.213870 -0.042857
					CHANNELS 3 Zrotation Yrotation Xrotation
					JOINT Head
					{
						OFFSET 0.005152 0.064970 0.051349
						CHANNELS 3 Zrotation Yrotation Xrotation
						End Site
						{
							OFFSET 0.000000 0.000000 0.000000
						}
					}
				}
				JOINT LeftShoulder
				{
					OFFSET 0.078845 0.121749 -0.034090
					CHANNELS 3 Zrotation Yrotation Xrotation
					JOINT LeftArm
					{
						OFFSET 0.090977 0.030469 -0.008868
						CHANNELS 3 Zrotation Yrotation Xrotation
						JOINT LeftForeArm
						{
							OFFSET 0.259612 -0.012772 -0.027456
							CHANNELS 3 Zrotation Yrotation Xrotation
							JOINT LeftHand
							{
								OFFSET 0.249234 0.008986 -0.001171
								CHANNELS 3 Zrotation Yrotation Xrotation
								End Site
								{
									OFFSET 0.000000 0.000000 0.000000
								}
							}
						}
					}
				}
				JOINT RightShoulder
				{
					OFFSET -0.081759 0.118833 -0.038615
					CHANNELS 3 Zrotation Yrotation Xrotation
					JOINT RightArm
					{
						OFFSET -0.096012 0.032551 -0.009143
						CHANNELS 3 Zrotation Yrotation Xrotation
						JOINT RightForeArm
						{
							OFFSET -0.253742 -0.013329 -0.021401
							CHANNELS 3 Zrotation Yrotation Xrotation
							JOINT RightHand
							{
								OFFSET -0.255298 0.007772 -0.005559
								CHANNELS 3 Zrotation Yrotation Xrotation
								End Site
								{
									OFFSET 0.000000 0.000000 0.000000
								}
							}
						}
					}
				}
			}
		}
	}
}
MOTION
Frames: 9
Frame Time: 0.050000
0.000000 0.939123 0.000000 -2.198517 5.124468 -3.495018 -2.043763 -0.040955 -0.570947 -0.879461 -0.701834 19.612992 3.444635 5.300278 -4.527201 0.000000 0.000000 0.000000 2.761524 2.220105 -18.913162 2.288509 -0.221598 29.980690 -4.274559 -10.369613 -1.728754 0.000000 0.000000 0.000000 3.717987 -0.526454 7.055074 -0.917021 0.593696 -4.357085 -2.367457 2.117101 10.861590 6.640434 -1.924236 -19.704808 0.000000 0.000000 0.000000 -24.554512 -4.307315 -1.486436 -47.772734 -5.640012 -3.560148 -9.367049 -30.775663 3.452997 0.000000 0.000000 0.000000 20.660977 -1.098307 -0.876522 56.757933 4.831936 -4.180177 10.548483 28.964717 4.056395 0.000000 0.000000 0.000000 
0.001343 0.941594 0.025558 -2.821319 4.653664 -2.638291 -2.686638 0.076747 0.418736 -0.128972 -0.670639 15.664170 2.446539 2.873911 -4.875592 0.000000 0.000000 0.000000 5.027994 2.417136 -17.683911 1.354170 0.191023 26.969518 -4.530733 -11.370220 0.158842 0.000000 0.000000 0.000000 4.671701 -0.420679 5.013870 -0.359739 0.359640 -4.867770 -2.775322 3.815672 11.756778 7.568473 -2.050627 -21.151987 0.000000 0.000000 0.000000 -24.091985 -3.649814 -2.311283 -48.917140 -3.101560 -4.581670 -9.555934 -30.209413 3.328222 0.000000 0.000000 0.000000 20.277405 -1.392707 -0.609590 58.059415 3.578733 -4.882756 10.841663 30.387528 4.503111 0.000000 0.000000 0.000000 
0.002448 0.937160 0.051869 -2.495746 4.862507 -3.337163 -4.424736 0.267215 1.817653 1.084294 -0.948286 15.288159 2.620434 2.878303 -5.619132 0.000000 0.000000 0.000000 4.945378 2.175544 -15.910162 1.490997 0.114846 27.186410 -3.226485 -7.707380 -1.718563 0.000000 0.000000 0.000000 5.308452 -0.357295 4.130326 -0.786547 0.552166 -4.931284 -3.417182 3.955855 12.236427 7.709993 -2.251235 -20.269578 0.000000 0.000000 0.000000 -22.959872 -5.039276 -1.432516 -50.931333 -2.439893 -5.171170 -6.389264 -25.345307 2.093880 0.000000 0.000000 0.000000 19.024388 -0.487290 0.027718 59.779954 3.721194 -4.905355 8.309193 29.333180 3.706909 0.000000 0.000000 0.000000 
0.002799 0.931377 0.075504 -2.507378 6.287590 -4.808843 -4.500979 0.609074 4.759922 0.763127 -0.973650 16.220400 2.449945 1.599217 -6.945403 0.000000 0.000000 0.000000 5.674235 2.080799 -14.479783 0.659278 0.268367 29.734289 -2.742577 -6.868467 -0.248179 0.000000 0.000000 0.000000 4.978301 -0.373598 4.693966 -0.436209 0.435478 -5.185667 -3.593028 3.244631 12.954063 7.509281 -2.023672 -20.956816 0.000000 0.000000 0.000000 -24.758683 -4.976875 -1.778598 -50.067525 -2.138484 -5.159271 -5.313619 -24.676245 1.810696 0.000000 0.000000 0.000000 20.934989 -1.314151 -0.377359 57.491907 3.736718 -5.011708 10.389060 29.449022 4.275528 0.000000 0.000000 0.000000 
0.002193 0.930473 0.093624 -2.640847 6.235510 -6.303007 -4.009903 0.861841 7.376736 0.319359 -0.857232 16.142314 2.454197 2.021733 -6.224645 0.000000 0.000000 0.000000 6.150463 2.066066 -13.788070 0.698137 0.219333 33.342131 -2.575640 -6.755364 0.946868 0.000000 0.000000 0.000000 4.354676 -0.380386 5.336682 0.840921 -0.110167 -5.312622 -3.967150 2.471059 14.025910 8.130237 -2.160089 -23.194599 0.000000 0.000000 0.000000 -24.654257 -6.016245 -0.846748 -50.138108 -3.222802 -4.909520 -3.934408 -23.802426 1.519546 0.000000 0.000000 0.000000 22.416958 -1.403717 -0.634026 55.832566 4.143393 -4.897146 10.757617 28.952195 4.223872 0.000000 0.000000 0.000000 
0.000750 0.933166 0.106718 -2.885407 5.222953 -6.264147 -4.130481 0.982824 8.303632 0.408754 -0.890522 16.835873 2.661501 2.007521 -7.368286 0.000000 0.000000 0.000000 6.087239 2.558797 -17.280663 1.510626 -0.046470 37.882840 -2.299072 -6.021803 0.776388 0.000000 0.000000 0.000000 4.205723 -0.365747 5.255435 0.599233 -0.019154 -5.379173 -2.861470 0.186899 14.430839 6.379172 -1.512957 -23.692926 0.000000 0.000000 0.000000 -23.645792 -5.680009 0.134227 -52.184591 -4.527083 -4.967629 -3.528423 -25.545257 1.722202 0.000000 0.000000 0.000000 20.278254 -0.195939 -0.698112 56.375229 2.986821 -5.296856 13.427266 28.166210 4.540053 0.000000 0.000000 0.000000 
-0.000830 0.936727 0.115852 -3.071514 4.003045 -5.857482 -3.899657 0.973725 8.222446 -0.108503 -0.721728 16.918104 2.404423 2.091071 -6.312859 0.000000 0.000000 0.000000 6.812425 3.003298 -19.444072 0.702377 0.541903 35.930175 -2.032689 -5.612328 1.533566 0.000000 0.000000 0.000000 4.407330 -0.409675 5.649941 0.571861 -0.063751 -4.540160 -2.637715 -0.886106 13.313060 5.603519 -1.222858 -24.258503 0.000000 0.000000 0.000000 -23.160074 -6.051369 0.942503 -52.170633 -7.046206 -3.947006 -3.963494 -26.370663 1.966811 0.000000 0.000000 0.000000 19.899175 -0.005973 -1.085946 56.713267 1.556587 -5.804240 13.928169 27.492553 4.393413 0.000000 0.000000 0.000000 
-0.002295 0.936389 0.122115 -2.866141 4.416176 -4.657215 -3.659174 1.132779 9.738311 0.266694 -0.681849 14.284637 2.630115 1.778450 -7.831858 0.000000 0.000000 0.000000 6.006657 3.185574 -21.930837 0.824084 0.412385 28.339883 -2.278453 -6.455690 2.494336 0.000000 0.000000 0.000000 4.362538 -0.493186 6.420237 1.375243 -0.328648 -6.212235 -3.497626 -2.727308 13.688569 6.798377 -2.042869 -24.700549 0.000000 0.000000 0.000000 -21.253715 -5.944272 1.477399 -53.036221 -10.452780 -2.679785 -4.846489 -29.146634 2.536860 0.000000 0.000000 0.000000 19.973239 -0.105585 -1.537474 55.969205 0.487618 -6.198511 14.533294 26.449019 4.240781 0.000000 0.000000 0.000000 
-0.003505 0.933751 0.126608 -2.773254 3.581433 -2.590988 -2.370921 1.123722 10.521413 -0.496503 -0.319372 10.447693 3.256303 3.647222 -7.432295 0.000000 0.000000 0.000000 6.154943 3.533390 -24.203469 -0.614792 0.807912 19.944933 -1.199327 -4.590505 4.413611 0.000000 0.000000 0.000000 4.956462 -0.387104 4.505438 1.668633 -0.581415 -4.013350 -4.153297 -2.958925 10.551917 6.024685 -1.784653 -23.201633 0.000000 0.000000 0.000000 -21.461470 -6.601995 1.907646 -54.109776 -11.994280 -1.711457 -4.536290 -34.361281 2.944986 0.000000 0.000000 0.000000 20.821663 0.333754 -1.653006 53.977207 -1.872811 -6.641413 15.738603 25.031874 4.127521 0.000000 0.000000 0.000000 
